# xmcd
#
# Track frame offsets: 
#        150
#        16265
#        32853
#        49288
#        62446
#        80591
#        97316
#        112828
#        126090
#        143543
#        164663
#
# Disc length: 2356 seconds
#
# Revision: 0
# Processed by: cddbd v1.5.2PL0 Copyright (c) Steve Scherf et al.
# Submitted via: ExactAudioCopy v0.99pb4
#
DISCID=9109320b
DTITLE=ZAZ - ZAZ
DYEAR=2010
DGENRE=Blues
TTITLE0=Les passants
TTITLE1=Je veux
TTITLE2=Le long de la route
TTITLE3=La fee
TTITLE4=Trop sensible
TTITLE5=Prends garde a ta langue
TTITLE6=Ni oui Ni non
TTITLE7=Port Coton
TTITLE8=J'aime a nouveau
TTITLE9=Dans ma rue
TTITLE10=Eblouie par la nuit
EXTD=
EXTT0=Les passants
EXTT1=
EXTT2=
EXTT3=
EXTT4=
EXTT5=
EXTT6=
EXTT7=
EXTT8=
EXTT9=
EXTT10=
PLAYORDER=
